<svg width="43" height="44" viewBox="0 0 43 44" fill="none" xmlns="http://www.w3.org/2000/svg">
<path d="M39.0831 25.7762C37.404 24.0675 35.2465 22.9906 32.9087 22.6734V5.1915C32.9087 2.32904 30.5797 0 27.7172 0H5.19183C2.32904 0 0 2.32904 0 5.1915V35.0524C0 37.9152 2.32904 40.2443 5.1915 40.2443H23.3085C25.3472 42.6391 28.2785 44 31.4498 44C37.3529 44 42.1554 39.1942 42.1554 33.287C42.1554 30.4591 41.0644 27.7917 39.0831 25.7762ZM2.57812 35.0524V5.1915C2.57812 3.7507 3.7507 2.57812 5.19183 2.57812H27.7172C29.1583 2.57812 30.3306 3.7507 30.3306 5.1915V22.6324C24.9514 23.1941 20.7442 27.7578 20.7442 33.287C20.7442 34.8195 21.0638 36.3012 21.6767 37.6658H5.19183C3.7507 37.6658 2.57812 36.4936 2.57812 35.0524ZM31.4498 41.4219C28.8753 41.4219 26.5087 40.2399 24.9561 38.1794C23.8873 36.7604 23.322 35.0689 23.322 33.287C23.322 28.8015 26.9683 25.1522 31.4498 25.1522C31.4921 25.1522 31.5347 25.1528 31.577 25.1535L31.5968 25.1538C33.7362 25.1918 35.7419 26.0545 37.2445 27.5833C38.7487 29.1137 39.5772 31.1396 39.5772 33.287C39.5772 37.7726 35.9313 41.4219 31.4498 41.4219Z" fill="white"/>
</svg>
